<?xml version="1.0" encoding="UTF-8" standalone="no"?>
<svg
   xmlns:dc="http://purl.org/dc/elements/1.1/"
   xmlns:cc="http://creativecommons.org/ns#"
   xmlns:rdf="http://www.w3.org/1999/02/22-rdf-syntax-ns#"
   xmlns:svg="http://www.w3.org/2000/svg"
   xmlns="http://www.w3.org/2000/svg"
   xmlns:sodipodi="http://sodipodi.sourceforge.net/DTD/sodipodi-0.dtd"
   xmlns:inkscape="http://www.inkscape.org/namespaces/inkscape"
   width="35.100834pt"
   height="35.101044pt"
   viewBox="0 0 35.100834 35.101044"
   version="1.1"
   id="svg4176"
   inkscape:version="0.91 r13725"
   sodipodi:docname="cuts.svg">
  <metadata
     id="metadata4205">
    <rdf:RDF>
      <cc:Work
         rdf:about="">
        <dc:format>image/svg+xml</dc:format>
        <dc:type
           rdf:resource="http://purl.org/dc/dcmitype/StillImage" />
        <dc:title></dc:title>
      </cc:Work>
    </rdf:RDF>
  </metadata>
  <defs
     id="defs4203" />
  <sodipodi:namedview
     pagecolor="#ffffff"
     bordercolor="#666666"
     borderopacity="1"
     objecttolerance="10"
     gridtolerance="10"
     guidetolerance="10"
     inkscape:pageopacity="0"
     inkscape:pageshadow="2"
     inkscape:window-width="1536"
     inkscape:window-height="803"
     id="namedview4201"
     showgrid="false"
     fit-margin-top="0"
     fit-margin-left="0"
     fit-margin-right="0"
     fit-margin-bottom="0"
     inkscape:zoom="1.7321101"
     inkscape:cx="21.659335"
     inkscape:cy="21.659824"
     inkscape:window-x="-8"
     inkscape:window-y="-8"
     inkscape:window-maximized="1"
     inkscape:current-layer="svg4176" />
  <g
     id="surface1538"
     transform="matrix(0.35278,0,0,0.35278,-1.7547447,-1.5974383)">
    <path
       style="fill:none;stroke:#7373de;stroke-width:0.00393701;stroke-linecap:round;stroke-linejoin:miter;stroke-miterlimit:10;stroke-opacity:1"
       d="m 4.291362,-4.507859 c 0,0.091852 -0.137804,0.091852 -0.137804,0 0,-0.091905 0.137804,-0.091905 0.137804,0"
       transform="matrix(72,0,0,-72,-232.9937,-273.12441)"
       id="path4179"
       inkscape:connector-curvature="0" />
    <path
       style="fill:none;stroke:#7373de;stroke-width:0.00393701;stroke-linecap:round;stroke-linejoin:miter;stroke-miterlimit:10;stroke-opacity:1"
       d="m 3.612217,-3.976392 c 0,0.091852 -0.137804,0.091852 -0.137804,0 0,-0.091851 0.137804,-0.091851 0.137804,0"
       transform="matrix(72,0,0,-72,-232.9937,-273.12441)"
       id="path4181"
       inkscape:connector-curvature="0" />
    <path
       style="fill:none;stroke:#7373de;stroke-width:0.00393701;stroke-linecap:round;stroke-linejoin:miter;stroke-miterlimit:10;stroke-opacity:1"
       d="m 3.612217,-5.118102 c 0,0.091852 -0.137804,0.091852 -0.137804,0 0,-0.091851 0.137804,-0.091851 0.137804,0"
       transform="matrix(72,0,0,-72,-232.9937,-273.12441)"
       id="path4183"
       inkscape:connector-curvature="0" />
    <path
       style="fill:none;stroke:#7373de;stroke-width:0.00393701;stroke-linecap:round;stroke-linejoin:miter;stroke-miterlimit:10;stroke-opacity:1"
       d="m 4.685025,-3.858282 -0.039333,0"
       transform="matrix(72,0,0,-72,-232.9937,-273.12441)"
       id="path4185"
       inkscape:connector-curvature="0" />
    <path
       style="fill:none;stroke:#7373de;stroke-width:0.00393701;stroke-linecap:round;stroke-linejoin:miter;stroke-miterlimit:10;stroke-opacity:1"
       d="m 4.685025,-5.236211 0,1.377929"
       transform="matrix(72,0,0,-72,-232.9937,-273.12441)"
       id="path4187"
       inkscape:connector-curvature="0" />
    <path
       style="fill:none;stroke:#7373de;stroke-width:0.00393701;stroke-linecap:round;stroke-linejoin:miter;stroke-miterlimit:10;stroke-opacity:1"
       d="m 3.503927,-5.236211 1.181098,0"
       transform="matrix(72,0,0,-72,-232.9937,-273.12441)"
       id="path4189"
       inkscape:connector-curvature="0" />
    <path
       style="fill:none;stroke:#7373de;stroke-width:0.00393701;stroke-linecap:round;stroke-linejoin:miter;stroke-miterlimit:10;stroke-opacity:1"
       d="M 3.307096,-5.03938 3.503927,-5.236211"
       transform="matrix(72,0,0,-72,-232.9937,-273.12441)"
       id="path4191"
       inkscape:connector-curvature="0" />
    <path
       style="fill:none;stroke:#7373de;stroke-width:0.00393701;stroke-linecap:round;stroke-linejoin:miter;stroke-miterlimit:10;stroke-opacity:1"
       d="m 3.307096,-4.055113 0,-0.984267"
       transform="matrix(72,0,0,-72,-232.9937,-273.12441)"
       id="path4193"
       inkscape:connector-curvature="0" />
    <path
       style="fill:none;stroke:#7373de;stroke-width:0.00393701;stroke-linecap:round;stroke-linejoin:miter;stroke-miterlimit:10;stroke-opacity:1"
       d="M 3.503927,-3.858282 3.307096,-4.055113"
       transform="matrix(72,0,0,-72,-232.9937,-273.12441)"
       id="path4195"
       inkscape:connector-curvature="0" />
    <path
       style="fill:none;stroke:#7373de;stroke-width:0.00393701;stroke-linecap:round;stroke-linejoin:miter;stroke-miterlimit:10;stroke-opacity:1"
       d="m 3.543315,-3.858282 -0.039388,0"
       transform="matrix(72,0,0,-72,-232.9937,-273.12441)"
       id="path4197"
       inkscape:connector-curvature="0" />
    <path
       style="fill:none;stroke:#7373de;stroke-width:0.00393701;stroke-linecap:round;stroke-linejoin:miter;stroke-miterlimit:10;stroke-opacity:1"
       d="m 4.645692,-3.858282 -1.102377,0"
       transform="matrix(72,0,0,-72,-232.9937,-273.12441)"
       id="path4199"
       inkscape:connector-curvature="0" />
  </g>
</svg>
