G04 #@! TF.FileFunction,Copper,L2,Bot,Signal*
%FSLAX46Y46*%
G04 Gerber Fmt 4.6, Leading zero omitted, Abs format (unit mm)*
G04 Created by KiCad (PCBNEW (after 2015-may-01 BZR unknown)-product) date 6/15/2015 7:13:09 PM*
%MOMM*%
G01*
G04 APERTURE LIST*
%ADD10C,0.100000*%
%ADD11R,2.032000X1.727200*%
%ADD12O,2.032000X1.727200*%
%ADD13R,1.727200X2.032000*%
%ADD14O,1.727200X2.032000*%
%ADD15R,2.032000X2.032000*%
%ADD16O,2.032000X2.032000*%
%ADD17C,1.998980*%
%ADD18R,1.600000X1.600000*%
%ADD19C,1.600000*%
%ADD20C,0.250000*%
G04 APERTURE END LIST*
D10*
D11*
X101727000Y-101600000D03*
D12*
X101473000Y-104140000D03*
X101727000Y-106680000D03*
X101473000Y-109220000D03*
X101727000Y-111760000D03*
X101473000Y-114300000D03*
X101727000Y-116840000D03*
X101473000Y-119380000D03*
X101727000Y-121920000D03*
X101473000Y-124460000D03*
X101727000Y-127000000D03*
X101473000Y-129540000D03*
D11*
X116967000Y-101600000D03*
D12*
X116713000Y-104140000D03*
X116967000Y-106680000D03*
X116713000Y-109220000D03*
X116967000Y-111760000D03*
X116713000Y-114300000D03*
X116967000Y-116840000D03*
X116713000Y-119380000D03*
X116967000Y-121920000D03*
X116713000Y-124460000D03*
X116967000Y-127000000D03*
X116713000Y-129540000D03*
D13*
X86614000Y-125857000D03*
D14*
X89154000Y-126111000D03*
X91694000Y-125857000D03*
X94234000Y-126111000D03*
X96774000Y-125857000D03*
D13*
X110625000Y-126337000D03*
D14*
X108085000Y-126083000D03*
X105545000Y-126337000D03*
D13*
X113165000Y-129512000D03*
D14*
X110625000Y-129258000D03*
X108085000Y-129512000D03*
X105545000Y-129258000D03*
D15*
X93995000Y-107315000D03*
D16*
X96505000Y-107315000D03*
D15*
X87010000Y-107315000D03*
D16*
X89520000Y-107315000D03*
D15*
X93995000Y-113665000D03*
D16*
X96505000Y-113665000D03*
D15*
X87010000Y-113665000D03*
D16*
X89520000Y-113665000D03*
D15*
X93995000Y-120015000D03*
D16*
X96505000Y-120015000D03*
D15*
X87010000Y-120015000D03*
D16*
X89520000Y-120015000D03*
D17*
X113310000Y-104750000D03*
X105690000Y-104750000D03*
X113310000Y-102000000D03*
X105690000Y-102000000D03*
D18*
X110250000Y-110250000D03*
D19*
X112750000Y-110250000D03*
D20*
X101727000Y-127000000D02*
X101092000Y-127000000D01*
X101092000Y-127000000D02*
X97790000Y-123698000D01*
X97790000Y-123698000D02*
X92202000Y-123698000D01*
X92202000Y-123698000D02*
X91694000Y-124206000D01*
X91694000Y-124206000D02*
X91694000Y-125857000D01*
X101473000Y-129540000D02*
X101346000Y-129540000D01*
X101346000Y-129540000D02*
X99314000Y-127508000D01*
X99314000Y-127508000D02*
X95631000Y-127508000D01*
X95631000Y-127508000D02*
X94234000Y-126111000D01*
X113310000Y-102000000D02*
X113310000Y-102310000D01*
X113310000Y-102310000D02*
X115000000Y-104000000D01*
X115000000Y-104000000D02*
X115000000Y-119953000D01*
X115000000Y-119953000D02*
X116967000Y-121920000D01*
X113310000Y-104750000D02*
X113310000Y-107190000D01*
X112750000Y-122783000D02*
X116967000Y-127000000D01*
X112750000Y-116000000D02*
X112750000Y-122783000D01*
X108500000Y-111750000D02*
X112750000Y-116000000D01*
X108500000Y-109000000D02*
X108500000Y-111750000D01*
X109250000Y-108250000D02*
X108500000Y-109000000D01*
X112250000Y-108250000D02*
X109250000Y-108250000D01*
X113310000Y-107190000D02*
X112250000Y-108250000D01*
X105690000Y-104750000D02*
X105690000Y-110810000D01*
X108085000Y-120585000D02*
X108085000Y-126083000D01*
X104250000Y-116750000D02*
X108085000Y-120585000D01*
X104250000Y-112250000D02*
X104250000Y-116750000D01*
X105690000Y-110810000D02*
X104250000Y-112250000D01*
X105690000Y-102000000D02*
X106250000Y-102000000D01*
X106250000Y-102000000D02*
X107500000Y-103250000D01*
X107500000Y-103250000D02*
X107500000Y-110750000D01*
X107500000Y-110750000D02*
X105000000Y-113250000D01*
X105000000Y-113250000D02*
X105000000Y-115500000D01*
X105000000Y-115500000D02*
X110500000Y-121000000D01*
X110500000Y-121000000D02*
X110500000Y-123000000D01*
X110500000Y-123000000D02*
X115000000Y-127500000D01*
X115000000Y-127500000D02*
X115000000Y-131000000D01*
X115000000Y-131000000D02*
X114250000Y-131750000D01*
X114250000Y-131750000D02*
X111750000Y-131750000D01*
X111750000Y-131750000D02*
X110625000Y-130625000D01*
X110625000Y-130625000D02*
X110625000Y-129258000D01*
M02*
