G04 #@! TF.FileFunction,Soldermask,Top*
%FSLAX46Y46*%
G04 Gerber Fmt 4.6, Leading zero omitted, Abs format (unit mm)*
G04 Created by KiCad (PCBNEW (after 2015-may-01 BZR unknown)-product) date 6/15/2015 7:13:09 PM*
%MOMM*%
G01*
G04 APERTURE LIST*
%ADD10C,0.100000*%
%ADD11R,2.032000X1.727200*%
%ADD12O,2.032000X1.727200*%
%ADD13R,1.727200X2.032000*%
%ADD14O,1.727200X2.032000*%
%ADD15R,2.032000X2.032000*%
%ADD16O,2.032000X2.032000*%
%ADD17C,1.998980*%
%ADD18R,1.600000X1.600000*%
%ADD19C,1.600000*%
G04 APERTURE END LIST*
D10*
D11*
X101727000Y-101600000D03*
D12*
X101473000Y-104140000D03*
X101727000Y-106680000D03*
X101473000Y-109220000D03*
X101727000Y-111760000D03*
X101473000Y-114300000D03*
X101727000Y-116840000D03*
X101473000Y-119380000D03*
X101727000Y-121920000D03*
X101473000Y-124460000D03*
X101727000Y-127000000D03*
X101473000Y-129540000D03*
D11*
X116967000Y-101600000D03*
D12*
X116713000Y-104140000D03*
X116967000Y-106680000D03*
X116713000Y-109220000D03*
X116967000Y-111760000D03*
X116713000Y-114300000D03*
X116967000Y-116840000D03*
X116713000Y-119380000D03*
X116967000Y-121920000D03*
X116713000Y-124460000D03*
X116967000Y-127000000D03*
X116713000Y-129540000D03*
D13*
X86614000Y-125857000D03*
D14*
X89154000Y-126111000D03*
X91694000Y-125857000D03*
X94234000Y-126111000D03*
X96774000Y-125857000D03*
D13*
X110625000Y-126337000D03*
D14*
X108085000Y-126083000D03*
X105545000Y-126337000D03*
D13*
X113165000Y-129512000D03*
D14*
X110625000Y-129258000D03*
X108085000Y-129512000D03*
X105545000Y-129258000D03*
D15*
X93995000Y-107315000D03*
D16*
X96505000Y-107315000D03*
D15*
X87010000Y-107315000D03*
D16*
X89520000Y-107315000D03*
D15*
X93995000Y-113665000D03*
D16*
X96505000Y-113665000D03*
D15*
X87010000Y-113665000D03*
D16*
X89520000Y-113665000D03*
D15*
X93995000Y-120015000D03*
D16*
X96505000Y-120015000D03*
D15*
X87010000Y-120015000D03*
D16*
X89520000Y-120015000D03*
D17*
X113310000Y-104750000D03*
X105690000Y-104750000D03*
X113310000Y-102000000D03*
X105690000Y-102000000D03*
D18*
X110250000Y-110250000D03*
D19*
X112750000Y-110250000D03*
M02*
