M48
;DRILL file {KiCad (after 2015-may-01 BZR unknown)-product} date 6/15/2015 7:13:12 PM
;FORMAT={-:-/ absolute / inch / decimal}
FMAT,2
INCH,TZ
T1C0.026
T2C0.032
T3C0.040
%
G90
G05
M72
T1
X4.3406Y-4.3406
X4.439Y-4.3406
T2
X4.161Y-4.0157
X4.161Y-4.124
X4.461Y-4.0157
X4.461Y-4.124
T3
X3.41Y-4.955
X3.4256Y-4.225
X3.4256Y-4.475
X3.4256Y-4.725
X3.51Y-4.965
X3.5244Y-4.225
X3.5244Y-4.475
X3.5244Y-4.725
X3.61Y-4.955
X3.7006Y-4.225
X3.7006Y-4.475
X3.7006Y-4.725
X3.71Y-4.965
X3.7994Y-4.225
X3.7994Y-4.475
X3.7994Y-4.725
X3.81Y-4.955
X3.995Y-4.1
X3.995Y-4.3
X3.995Y-4.5
X3.995Y-4.7
X3.995Y-4.9
X3.995Y-5.1
X4.005Y-4.
X4.005Y-4.2
X4.005Y-4.4
X4.005Y-4.6
X4.005Y-4.8
X4.005Y-5.
X4.1553Y-4.9739
X4.1553Y-5.0889
X4.2553Y-4.9639
X4.2553Y-5.0989
X4.3553Y-4.9739
X4.3553Y-5.0889
X4.4553Y-5.0989
X4.595Y-4.1
X4.595Y-4.3
X4.595Y-4.5
X4.595Y-4.7
X4.595Y-4.9
X4.595Y-5.1
X4.605Y-4.
X4.605Y-4.2
X4.605Y-4.4
X4.605Y-4.6
X4.605Y-4.8
X4.605Y-5.
T0
M30
